<?xml version="1.0" encoding="UTF-8"?>
<svg version="1.1" xmlns="http://www.w3.org/2000/svg" width="128" height="128">
<path d="M0 0 C14.66593153 10.19568513 25.60840641 23.74932626 29.74780273 41.46484375 C31.86603529 54.29763126 31.44584138 68.79991362 26.125 80.75 C25.76277344 81.62269531 25.40054688 82.49539062 25.02734375 83.39453125 C17.33536706 100.36902897 3.07751411 111.05081733 -13.734375 117.91796875 C-30.02500275 122.93228047 -49.3872321 120.84818754 -64.375 113.25 C-80.79373216 104.34772371 -91.48385123 89.95575147 -96.98828125 72.1484375 C-100.09059644 59.05712927 -99.35177869 43.05030624 -93.875 30.75 C-93.51277344 29.87730469 -93.15054688 29.00460938 -92.77734375 28.10546875 C-85.8549626 12.82929883 -73.23462165 1.78063924 -57.87109375 -4.47265625 C-38.93392049 -11.50790437 -17.48941603 -10.43527048 0 0 Z " fill="#3C494C" transform="translate(97.875,8.25)"/>
<path d="M0 0 C9.92233288 7.36280312 17.09092786 17.20683547 19.11328125 29.59375 C20.14404917 42.60719504 17.65040309 54.28678421 9.17578125 64.359375 C0.44716509 73.80921156 -10.27545388 79.24537079 -23.23046875 79.79296875 C-36.11619909 79.57363717 -46.38146565 74.57647519 -55.40625 65.6328125 C-63.65945642 56.64234695 -67.40614196 44.88681135 -67.078125 32.79296875 C-65.56904212 20.14541703 -59.44675513 9.65122852 -49.6171875 1.69921875 C-34.24421694 -8.8985806 -16.09243497 -9.91934864 0 0 Z " fill="#2B3538" transform="translate(87.66796875,27.64453125)"/>
<path d="M0 0 C14.66593153 10.19568513 25.60840641 23.74932626 29.74780273 41.46484375 C31.86603529 54.29763126 31.44584138 68.79991362 26.125 80.75 C25.76277344 81.62269531 25.40054688 82.49539062 25.02734375 83.39453125 C17.33536706 100.36902897 3.07751411 111.05081733 -13.734375 117.91796875 C-30.02500275 122.93228047 -49.3872321 120.84818754 -64.375 113.25 C-80.79373216 104.34772371 -91.48385123 89.95575147 -96.98828125 72.1484375 C-100.09059644 59.05712927 -99.35177869 43.05030624 -93.875 30.75 C-93.51277344 29.87730469 -93.15054688 29.00460938 -92.77734375 28.10546875 C-85.8549626 12.82929883 -73.23462165 1.78063924 -57.87109375 -4.47265625 C-38.93392049 -11.50790437 -17.48941603 -10.43527048 0 0 Z M-78.96484375 15.50390625 C-90.20208652 28.71743303 -94.94536609 44.58591518 -93.875 61.75 C-91.3503632 77.82599612 -84.64382529 92.23598711 -71.875 102.75 C-57.20755639 113.41105855 -41.60149079 117.78536865 -23.51171875 115.28515625 C-6.0738325 111.75581161 7.8231184 101.62645822 17.8125 87.0625 C26.12712391 73.0544726 28.38270522 56.70128046 24.4375 41 C19.39949016 24.02524212 9.22475559 10.97887128 -6.15625 2.1015625 C-30.82117425 -10.16002341 -60.08231691 -4.35465578 -78.96484375 15.50390625 Z " fill="#2A3437" transform="translate(97.875,8.25)"/>
<path d="M0 0 C2.64 0 5.28 0 8 0 C7.67 4.95 7.34 9.9 7 15 C7.78375 12.875625 8.5675 10.75125 9.375 8.5625 C11.75 2.125 11.75 2.125 14 1 C16.4750171 2.11431765 18.67883419 3.58150978 21 5 C19.55575365 8.23861303 17.74227753 10.61969163 15.375 13.25 C14.74335937 13.95640625 14.11171875 14.6628125 13.4609375 15.390625 C12.97882813 15.92171875 12.49671875 16.4528125 12 17 C15.10910487 17 16.379834 15.0527232 18.625 13 C19.44226563 12.2575 20.25953125 11.515 21.1015625 10.75 C21.72804687 10.1725 22.35453125 9.595 23 9 C26 10 26 10 27.75 12.375 C29 15 29 15 28 18 C25.10922803 19.63391459 22.08198971 20.74115913 19 22 C22.96 21.67 26.92 21.34 31 21 C31 24.3 31 27.6 31 31 C25.72 30.34 20.44 29.68 15 29 C18.1865625 30.175625 18.1865625 30.175625 21.4375 31.375 C27.875 33.75 27.875 33.75 29 36 C28.22265625 37.7265625 28.22265625 37.7265625 27.0625 39.625 C26.381875 40.73875 25.70125 41.8525 25 43 C22.33333333 41.66666667 19.66666667 40.33333333 17 39 C17.495 39.7425 17.99 40.485 18.5 41.25 C20 44 20 44 20 48 C17.69 48.99 15.38 49.98 13 51 C12.65066406 50.14535156 12.30132812 49.29070312 11.94140625 48.41015625 C11.48636719 47.30542969 11.03132813 46.20070312 10.5625 45.0625 C10.11003906 43.96035156 9.65757813 42.85820313 9.19140625 41.72265625 C8.25575392 39.13431084 8.25575392 39.13431084 7 38 C7.66 42.62 8.32 47.24 9 52 C5.78548731 53.60725635 2.56387464 53.05748185 -1 53 C-0.67 49.04 -0.34 45.08 0 41 C-1.65 44.3 -3.3 47.6 -5 51 C-10 49 -10 49 -13 47 C-11.55575365 43.76138697 -9.74227753 41.38030837 -7.375 38.75 C-6.74335937 38.04359375 -6.11171875 37.3371875 -5.4609375 36.609375 C-4.97882812 36.07828125 -4.49671875 35.5471875 -4 35 C-7.77654955 36.70152232 -10.34109956 39.02594546 -13.31640625 41.85546875 C-13.87199219 42.23316406 -14.42757812 42.61085937 -15 43 C-15.99 42.67 -16.98 42.34 -18 42 C-19.6875 38.4375 -19.6875 38.4375 -21 35 C-20.09507813 34.60167969 -20.09507813 34.60167969 -19.171875 34.1953125 C-18.37265625 33.84210938 -17.5734375 33.48890625 -16.75 33.125 C-15.96109375 32.77695313 -15.1721875 32.42890625 -14.359375 32.0703125 C-12.21131392 31.09586095 -10.10170798 30.07013571 -8 29 C-9.2375 29.2475 -9.2375 29.2475 -10.5 29.5 C-14.41272317 30.05896045 -18.05183173 30.06807187 -22 30 C-22 27.36 -22 24.72 -22 22 C-17.05 22.33 -12.1 22.66 -7 23 C-9.124375 22.236875 -11.24875 21.47375 -13.4375 20.6875 C-17.05859375 19.38671875 -17.05859375 19.38671875 -20 18 C-20.33 17.01 -20.66 16.02 -21 15 C-19.0625 11.8125 -19.0625 11.8125 -17 9 C-13.76138697 10.44424635 -11.38030837 12.25772247 -8.75 14.625 C-8.04359375 15.25664063 -7.3371875 15.88828125 -6.609375 16.5390625 C-6.07828125 17.02117188 -5.5471875 17.50328125 -5 18 C-5 14.89089513 -6.9472768 13.620166 -9 11.375 C-9.7425 10.55773438 -10.485 9.74046875 -11.25 8.8984375 C-11.8275 8.27195312 -12.405 7.64546875 -13 7 C-12 4 -12 4 -9.625 2.25 C-7 1 -7 1 -4 2 C-2.02065111 5.88621458 -0.5850643 9.93024031 1 14 C0.67 9.38 0.34 4.76 0 0 Z " fill="#273035" transform="translate(60,38)"/>
<path d="M0 0 C1.65 0 3.3 0 5 0 C5.0515625 0.7528125 5.103125 1.505625 5.15625 2.28125 C6.53572175 15.19812186 11.87284936 27.38207216 21.65234375 36.171875 C31.31894473 43.69927809 40.86754143 47.02157592 53 48 C53 49.65 53 51.3 53 53 C39.84681804 54.18615869 28.28305996 48.9944521 18 41 C8.86194386 32.82846903 1.86555117 21.22972433 0 9 C-0.12796118 5.99054252 -0.12538231 3.00917553 0 0 Z " fill="#DEC238" transform="translate(11,64)"/>
<path d="M0 0 C14.06273868 -0.95340601 26.04176516 4.90880803 36.6875 13.6875 C45.21665969 21.62999791 52.21037005 33.52666323 53.3046875 45.26953125 C53.31136229 47.8693607 53.23341529 50.41168377 53 53 C51.35 53 49.7 53 48 53 C47.90203125 52.17757812 47.8040625 51.35515625 47.703125 50.5078125 C46.22672497 39.48572262 43.72946152 31.45381863 36.48828125 22.91015625 C35 21 35 21 34 18 C32.19227116 16.93133706 32.19227116 16.93133706 30 16 C28.38938676 15.03147378 26.78558963 14.05155389 25.1875 13.0625 C16.87507142 8.09679049 9.56164009 6.22216452 0 5 C0 3.35 0 1.7 0 0 Z " fill="#DFC237" transform="translate(64,11)"/>
<path d="M0 0 C0 3.3 0 6.6 0 10 C-2.45993028 9.7186941 -4.91740248 9.42547269 -7.375 9.125 C-8.42300781 9.00705078 -8.42300781 9.00705078 -9.4921875 8.88671875 C-14.7734375 8.2265625 -14.7734375 8.2265625 -17 6 C-17 5.01 -17 4.02 -17 3 C-3.63106796 0 -3.63106796 0 0 0 Z " fill="#EBECEC" transform="translate(91,59)"/>
<path d="M0 0 C1.32 0.33 2.64 0.66 4 1 C5.57077907 6.02649303 6.44854729 10.76119922 7 16 C3.78548731 17.60725635 0.56387464 17.05748185 -3 17 C-2.69188262 14.54104382 -2.37871012 12.08291693 -2.0625 9.625 C-1.97548828 8.92632812 -1.88847656 8.22765625 -1.79882812 7.5078125 C-1.11328125 2.2265625 -1.11328125 2.2265625 0 0 Z " fill="#EEEEEF" transform="translate(62,74)"/>
<path d="M0 0 C3.47775179 1.51553404 5.9557984 3.5773456 8.75 6.125 C9.94882812 7.21167969 9.94882812 7.21167969 11.171875 8.3203125 C11.77515625 8.87460937 12.3784375 9.42890625 13 10 C12.67 10.99 12.34 11.98 12 13 C6.03435204 12.49228528 1.36190101 10.61407872 -4 8 C-2.87548273 5.0280615 -1.77706209 2.66559313 0 0 Z " fill="#F1F2F2" transform="translate(43,47)"/>
<path d="M0 0 C1.16796875 2.109375 1.16796875 2.109375 2.1875 4.75 C2.53167969 5.61109375 2.87585937 6.4721875 3.23046875 7.359375 C4.01419245 10.04870098 4.14520761 12.21601956 4 15 C0 15 0 15 -2.359375 12.8125 C-3.14828125 11.884375 -3.9371875 10.95625 -4.75 10 C-5.54921875 9.071875 -6.3484375 8.14375 -7.171875 7.1875 C-7.77515625 6.465625 -8.3784375 5.74375 -9 5 C-8 2 -8 2 -5.625 0.25 C-3 -1 -3 -1 0 0 Z " fill="#F1F1F2" transform="translate(56,40)"/>
<path d="M0 0 C0 4 0 4 -2.1875 6.359375 C-3.115625 7.14828125 -4.04375 7.9371875 -5 8.75 C-6.3921875 9.94882813 -6.3921875 9.94882813 -7.8125 11.171875 C-8.534375 11.77515625 -9.25625 12.3784375 -10 13 C-10.99 12.67 -11.98 12.34 -13 12 C-14.6875 8.4375 -14.6875 8.4375 -16 5 C-15.37351563 4.72285156 -14.74703125 4.44570312 -14.1015625 4.16015625 C-13.28429688 3.79792969 -12.46703125 3.43570313 -11.625 3.0625 C-10.81289063 2.70285156 -10.00078125 2.34320313 -9.1640625 1.97265625 C-5.75342283 0.43971532 -3.78992753 -0.09973494 0 0 Z " fill="#F3F3F3" transform="translate(55,68)"/>
<path d="M0 0 C3 1 3 1 4.75 3.375 C6 6 6 6 5 9 C2.671875 10.203125 2.671875 10.203125 -0.25 11.25 C-1.20390625 11.60578125 -2.1578125 11.9615625 -3.140625 12.328125 C-6.19014218 13.04467822 -8.01691636 12.84919899 -11 12 C-9.49650623 8.33213607 -7.36271208 6.31089607 -4.375 3.75 C-3.14910156 2.69039062 -3.14910156 2.69039062 -1.8984375 1.609375 C-1.27195312 1.07828125 -0.64546875 0.5471875 0 0 Z " fill="#F4F5F5" transform="translate(83,47)"/>
<path d="M0 0 C2.64 1.32 5.28 2.64 8 4 C6.36085362 7.27829276 4.9514467 9.50702791 2.625 12.25 C2.03976563 12.95640625 1.45453125 13.6628125 0.8515625 14.390625 C-1 16 -1 16 -5 16 C-4.49228528 10.03435204 -2.61407872 5.36190101 0 0 Z " fill="#F4F5F5" transform="translate(73,39)"/>
<path d="M0 0 C3.66786393 1.50349377 5.68910393 3.63728792 8.25 6.625 C8.95640625 7.44226563 9.6628125 8.25953125 10.390625 9.1015625 C10.92171875 9.72804688 11.4528125 10.35453125 12 11 C11.67 11.99 11.34 12.98 11 14 C7.4375 15.6875 7.4375 15.6875 4 17 C3.12957757 15.11157486 2.27924526 13.21388098 1.4375 11.3125 C0.96183594 10.25675781 0.48617187 9.20101562 -0.00390625 8.11328125 C-1.05322011 4.83366107 -1.00418265 3.24104461 0 0 Z " fill="#F6F6F6" transform="translate(69,72)"/>
<path d="M0 0 C-0.50771472 5.96564796 -2.38592128 10.63809899 -5 16 C-7.9719385 14.87548273 -10.33440687 13.77706209 -13 12 C-11.57298983 8.86340338 -9.85240215 6.37619467 -7.625 3.75 C-7.03976563 3.04359375 -6.45453125 2.3371875 -5.8515625 1.609375 C-4 0 -4 0 0 0 Z " fill="#F5F5F5" transform="translate(60,73)"/>
<path d="M0 0 C5.96564796 0.50771472 10.63809899 2.38592128 16 5 C14.68 7.64 13.36 10.28 12 13 C8.6325319 11.31626595 6.16415809 9.68918436 3.25 7.375 C2.45078125 6.74335937 1.6515625 6.11171875 0.828125 5.4609375 C-0.07679687 4.73777344 -0.07679687 4.73777344 -1 4 C-0.67 2.68 -0.34 1.36 0 0 Z " fill="#F5F5F5" transform="translate(73,68)"/>
<path d="M0 0 C2.29199177 0.14063135 4.58359186 0.28765943 6.875 0.4375 C8.15117188 0.51871094 9.42734375 0.59992187 10.7421875 0.68359375 C14 1 14 1 16 2 C15.67 3.32 15.34 4.64 15 6 C9.75614911 7.7479503 5.52677733 8.19392201 0 8 C0 5.36 0 2.72 0 0 Z " fill="#F7F8F8" transform="translate(38,60)"/>
<path d="M0 0 C2.64 0 5.28 0 8 0 C7.88628503 2.29225435 7.75869036 4.58382388 7.625 6.875 C7.55539063 8.15117188 7.48578125 9.42734375 7.4140625 10.7421875 C7 14 7 14 5 16 C4.01 16 3.02 16 2 16 C0.80911014 10.61972975 -0.2919519 5.54708616 0 0 Z " fill="#F9F9F9" transform="translate(60,38)"/>
<path d="M0 0 C2.625 0.375 2.625 0.375 5 1 C5.625 3.375 5.625 3.375 6 6 C5.34 6.66 4.68 7.32 4 8 C1.375 7.625 1.375 7.625 -1 7 C-1.625 4.625 -1.625 4.625 -2 2 C-1.34 1.34 -0.68 0.68 0 0 Z " fill="#DEDFE0" transform="translate(62,60)"/>
</svg>
